<svg xmlns="http://www.w3.org/2000/svg" xmlns:xlink="http://www.w3.org/1999/xlink" width="500" zoomAndPan="magnify" viewBox="0 0 375 374.999991" height="500" preserveAspectRatio="xMidYMid meet" version="1.0"><defs><filter x="0%" y="0%" width="100%" height="100%" id="12b511a759"><feColorMatrix values="0 0 0 0 1 0 0 0 0 1 0 0 0 0 1 0 0 0 1 0" color-interpolation-filters="sRGB"/></filter><g/><clipPath id="58695db1f1"><path d="M 13.429688 71.707031 L 362 71.707031 L 362 337.722656 L 13.429688 337.722656 Z M 13.429688 71.707031 " clip-rule="nonzero"/></clipPath><clipPath id="2d17a33564"><path d="M 30.679688 71.707031 L 344.320312 71.707031 C 348.894531 71.707031 353.285156 73.523438 356.519531 76.757812 C 359.753906 79.992188 361.570312 84.382812 361.570312 88.957031 L 361.570312 320.25 C 361.570312 324.824219 359.753906 329.210938 356.519531 332.449219 C 353.285156 335.683594 348.894531 337.5 344.320312 337.5 L 30.679688 337.5 C 26.105469 337.5 21.714844 335.683594 18.480469 332.449219 C 15.246094 329.210938 13.429688 324.824219 13.429688 320.25 L 13.429688 88.957031 C 13.429688 84.382812 15.246094 79.992188 18.480469 76.757812 C 21.714844 73.523438 26.105469 71.707031 30.679688 71.707031 " clip-rule="nonzero"/></clipPath><clipPath id="a343cb1895"><path d="M 97 53 L 290 53 L 290 223.457031 L 97 223.457031 Z M 97 53 " clip-rule="nonzero"/></clipPath><clipPath id="14d0c04eec"><path d="M 102 53 L 280 53 L 280 223.457031 L 102 223.457031 Z M 102 53 " clip-rule="nonzero"/></clipPath><clipPath id="5e176029be"><path d="M 97 54 L 290 54 L 290 223.457031 L 97 223.457031 Z M 97 54 " clip-rule="nonzero"/></clipPath><mask id="dc804ef2ed"><g filter="url(#12b511a759)"><rect x="-37.5" width="450" fill="#000000" y="-37.499999" height="449.999989" fill-opacity="0.298"/></g></mask><clipPath id="e65e793261"><path d="M 0.679688 0.71875 L 192.679688 0.71875 L 192.679688 169.457031 L 0.679688 169.457031 Z M 0.679688 0.71875 " clip-rule="nonzero"/></clipPath><clipPath id="09097947fd"><rect x="0" width="193" y="0" height="170"/></clipPath><clipPath id="07f744c989"><path d="M 97 54 L 291 54 L 291 223.457031 L 97 223.457031 Z M 97 54 " clip-rule="nonzero"/></clipPath><clipPath id="ca7c3c78d1"><path d="M 71 51 L 292 51 L 292 223.457031 L 71 223.457031 Z M 71 51 " clip-rule="nonzero"/></clipPath></defs><g clip-path="url(#58695db1f1)"><g clip-path="url(#2d17a33564)"><path fill="#ffffff" d="M 13.429688 71.707031 L 361.476562 71.707031 L 361.476562 337.722656 L 13.429688 337.722656 Z M 13.429688 71.707031 " fill-opacity="1" fill-rule="nonzero"/></g></g><g clip-path="url(#a343cb1895)"><path fill="#ffffff" d="M 115.34375 223.296875 C 115.34375 223.296875 114.261719 223.296875 112.953125 216.136719 C 111.332031 207.171875 114.984375 190.597656 115.523438 189.292969 C 111.78125 186.457031 97.167969 172.855469 97.890625 154.027344 C 98.609375 135.203125 112.726562 116.199219 112.726562 116.199219 C 112.726562 116.199219 114.847656 76.25 136.046875 53.59375 C 143.757812 54.359375 165.542969 73.097656 169.511719 76.609375 C 179.527344 73.546875 208.121094 73.953125 218.71875 76.519531 C 218.71875 76.519531 233.199219 59.945312 253.222656 54.542969 C 256.605469 55.757812 279.382812 93.859375 275.144531 116.601562 C 281.957031 122.816406 305.273438 158.128906 273.25 191.003906 C 279.382812 208.164062 275.503906 223.339844 275.503906 223.339844 Z M 115.34375 223.296875 C 115.34375 223.296875 112.953125 222.082031 112.324219 217.757812 C 110.925781 208.253906 114.894531 190.960938 115.523438 189.339844 C 111.78125 186.5 97.167969 172.898438 97.890625 154.074219 C 98.609375 135.25 112.726562 116.242188 112.726562 116.242188 C 112.726562 116.242188 113.945312 77.195312 135.144531 54.542969 C 142.855469 55.308594 165.542969 73.140625 169.511719 76.65625 C 179.527344 73.59375 208.121094 73.996094 218.71875 76.5625 C 218.71875 76.5625 231.980469 59.992188 251.960938 54.585938 C 255.34375 55.800781 279.339844 93.902344 275.097656 116.648438 C 281.910156 122.863281 305.226562 158.171875 273.207031 191.050781 C 279.339844 208.210938 275.054688 223.386719 275.054688 223.386719 L 115.34375 223.386719 Z M 115.34375 223.296875 " fill-opacity="1" fill-rule="nonzero"/></g><g clip-path="url(#14d0c04eec)"><path fill="#ff993b" d="M 182.953125 75.125 C 182.953125 75.125 209.429688 104.53125 175.0625 131.644531 C 140.691406 158.757812 97.121094 145.066406 103.03125 133.402344 C 103.03125 133.402344 108.757812 118.898438 114.125 115.523438 C 110.832031 106.828125 118.589844 82.554688 125.671875 68.1875 C 125.671875 68.1875 132.800781 54.585938 136.046875 53.640625 C 139.292969 52.695312 160.265625 67.285156 168.746094 75.03125 C 174.160156 75.707031 182.953125 75.125 182.953125 75.125 Z M 260.757812 223.296875 C 260.757812 223.296875 273.476562 219.875 279.835938 208.117188 C 272.304688 189.5625 264.140625 164.164062 257.195312 159.386719 C 250.246094 154.613281 248.351562 158.667969 245.511719 162.945312 C 242.894531 158.128906 235.226562 154.433594 232.835938 162.945312 C 229.859375 158.9375 220.886719 158.351562 221.246094 172.808594 C 221.652344 187.265625 229.5 223.296875 229.5 223.296875 Z M 260.757812 223.296875 " fill-opacity="1" fill-rule="nonzero"/></g><g clip-path="url(#5e176029be)"><g mask="url(#dc804ef2ed)"><g transform="matrix(1, 0, 0, 1, 97, 54)"><g clip-path="url(#09097947fd)"><g clip-path="url(#e65e793261)"><path fill="#ef5454" d="M 37.601562 38.011719 C 37.601562 38.011719 31.109375 47.964844 25.832031 56.972656 C 25.695312 26.03125 41.03125 12.566406 41.03125 12.566406 C 37.105469 20.941406 37.601562 38.011719 37.601562 38.011719 Z M 156.539062 38.011719 C 156.539062 38.011719 162.402344 47.964844 167.726562 56.972656 C 167.859375 26.03125 152.527344 12.566406 152.527344 12.566406 C 156.449219 20.941406 156.539062 38.011719 156.539062 38.011719 Z M 25.832031 118.449219 C 0.574219 98.859375 10.453125 71.519531 10.453125 71.519531 C -3.441406 86.425781 -2.132812 117.910156 14.058594 133.71875 C 15.230469 134.84375 16.496094 135.925781 17.894531 136.914062 C 20.285156 131.148438 23.578125 123.628906 25.832031 118.449219 Z M 66.648438 142.632812 L 65.25 151.507812 C 74 152.273438 81.667969 152.09375 86.40625 151.054688 C 82.121094 149.121094 75.128906 146.507812 66.648438 142.632812 Z M 128.441406 141.777344 C 119.105469 146.101562 111.390625 148.984375 106.792969 151.054688 C 111.753906 152.136719 119.917969 152.316406 129.117188 151.417969 Z M 182.789062 71.519531 C 182.789062 71.519531 192.53125 98.496094 167.859375 118.042969 C 169.9375 123.089844 173.410156 131.375 175.84375 136.507812 C 177.015625 135.609375 178.144531 134.664062 179.136719 133.71875 C 195.375 117.910156 196.683594 86.425781 182.789062 71.519531 Z M 154.554688 105.433594 C 154.554688 105.433594 162.085938 113.902344 164.433594 136.960938 C 166.777344 160.019531 158.796875 169.296875 158.796875 169.296875 L 182.789062 169.296875 C 182.789062 169.296875 185.632812 164.476562 183.242188 157.179688 C 180.894531 149.886719 166.101562 109.757812 158.75 105.386719 C 151.445312 101.019531 154.554688 105.433594 154.554688 105.433594 Z M 34.21875 105.34375 C 26.867188 109.710938 12.074219 149.886719 9.730469 157.136719 C 7.382812 164.433594 10.179688 169.25 10.179688 169.25 L 34.175781 169.25 C 34.175781 169.25 26.148438 159.929688 28.539062 136.914062 C 30.882812 113.855469 38.414062 105.386719 38.414062 105.386719 C 38.414062 105.386719 41.574219 101.019531 34.21875 105.34375 Z M 106.070312 120.386719 C 106.070312 120.386719 99.710938 123.71875 90.554688 120.386719 C 94.972656 129.03125 103.453125 127.277344 106.070312 120.386719 Z M 132.363281 25.492188 C 132.363281 25.492188 145.21875 8.015625 155.820312 2.074219 C 156.222656 0.542969 150.542969 -0.71875 141.386719 6.351562 C 132.230469 13.421875 121.71875 22.5625 121.71875 22.5625 Z M 72.601562 22.5625 C 72.601562 22.5625 62.09375 13.421875 52.9375 6.351562 C 43.78125 -0.71875 38.097656 0.542969 38.503906 2.074219 C 49.105469 8.015625 61.957031 25.492188 61.957031 25.492188 Z M 72.601562 22.5625 " fill-opacity="1" fill-rule="nonzero"/></g></g></g></g></g><g clip-path="url(#07f744c989)"><path fill="#ffffff" d="M 135.097656 54.542969 C 135.097656 54.542969 118.863281 84.625 119.988281 117.910156 C 110.335938 125.566406 105.285156 133.402344 100.144531 146.550781 C 99.964844 138.582031 104.746094 129.484375 112.683594 116.242188 C 113.902344 99.308594 124.003906 64.808594 135.097656 54.542969 Z M 113.089844 189.113281 C 113.089844 189.113281 114.757812 189.292969 116.066406 183.304688 C 99.738281 166.953125 99.875 147.363281 99.875 147.363281 C 91.347656 166.097656 113.089844 189.113281 113.089844 189.113281 Z M 109.707031 223.296875 C 110.832031 223.296875 113.359375 223.296875 115.34375 223.296875 C 108.625 214.917969 116.066406 194.292969 116.066406 194.292969 C 103.210938 211.179688 106.640625 223.296875 109.707031 223.296875 Z M 272.394531 194.292969 C 272.394531 194.292969 279.789062 214.917969 273.113281 223.296875 C 275.414062 223.296875 277.265625 223.296875 278.4375 223.296875 C 280.691406 222.574219 281.054688 222.484375 281.054688 222.484375 C 281.054688 222.484375 285.246094 211.179688 272.394531 194.292969 Z M 288.089844 147.410156 C 288.089844 147.410156 288.222656 167 271.898438 183.347656 C 273.207031 189.339844 275.191406 191.09375 275.191406 191.09375 C 275.191406 191.09375 296.613281 166.097656 288.089844 147.410156 Z M 288.089844 147.410156 " fill-opacity="1" fill-rule="nonzero"/></g><g clip-path="url(#ca7c3c78d1)"><path fill="#2b0806" d="M 239.738281 106.199219 C 233.515625 106.515625 213.535156 113.855469 213.625 116.152344 C 213.804688 120.386719 228.328125 125.925781 238.609375 130.160156 C 248.894531 134.394531 246.773438 128.671875 241.40625 125.25 C 243.347656 126.375 247.179688 125.65625 244.25 122.953125 C 242.21875 121.105469 229.816406 116.105469 229.816406 116.105469 C 229.816406 116.105469 236.492188 114.484375 241.226562 113.179688 C 245.691406 111.964844 244.925781 110.027344 240.640625 110.253906 C 242.714844 109.621094 245.152344 105.929688 239.738281 106.199219 Z M 209.699219 125.476562 C 208.347656 128.265625 205.371094 130.65625 202.4375 129.527344 C 199.507812 128.402344 197.433594 123.671875 194.09375 123.671875 C 190.757812 123.671875 188.726562 128.402344 185.75 129.527344 C 182.820312 130.65625 179.839844 128.265625 178.488281 125.476562 C 174.382812 127.683594 167.574219 133.582031 168.023438 145.382812 C 168.476562 157.179688 176.773438 166.460938 194.09375 166.460938 C 211.367188 166.460938 219.710938 157.136719 220.164062 145.382812 C 220.570312 133.582031 213.757812 127.683594 209.699219 125.476562 Z M 149.578125 130.160156 C 159.859375 125.925781 174.382812 120.386719 174.566406 116.152344 C 174.65625 113.855469 154.628906 106.515625 148.449219 106.199219 C 143.039062 105.929688 145.472656 109.621094 147.59375 110.296875 C 143.308594 110.027344 142.542969 112.007812 147.007812 113.226562 C 151.742188 114.53125 158.417969 116.152344 158.417969 116.152344 C 158.417969 116.152344 146.015625 121.152344 143.984375 123 C 141.054688 125.699219 144.886719 126.421875 146.828125 125.296875 C 141.414062 128.671875 139.292969 134.390625 149.578125 130.160156 Z M 249.570312 66.519531 C 249.570312 66.519531 253.449219 82.734375 251.332031 96.066406 C 254.488281 97.417969 264.726562 110.972656 264.726562 110.972656 C 264.726562 110.972656 262.964844 101.875 255.707031 94.128906 C 257.328125 85.300781 254.488281 71.113281 249.570312 66.519531 Z M 275.191406 191.050781 C 305.722656 161.324219 286.734375 128.761719 277.308594 116.511719 C 276.273438 76.609375 256.832031 51.027344 251.917969 51.613281 C 235.273438 56.074219 219.214844 72.375 216.917969 74.808594 C 207.308594 72.285156 198.46875 72.015625 194.09375 72.105469 C 189.71875 72.0625 180.878906 72.285156 171.273438 74.808594 C 168.925781 72.375 152.914062 56.074219 136.273438 51.613281 C 131.3125 51.027344 111.917969 76.609375 110.878906 116.511719 C 101.496094 128.71875 82.507812 161.28125 113 191.050781 L 112.953125 191.183594 C 110.742188 196.5 108.535156 201.992188 106.503906 207.261719 C 105.78125 209.199219 102.984375 217.214844 103.796875 223.296875 C 105.242188 223.296875 109.570312 223.296875 109.75 223.296875 C 107.765625 221.179688 109.707031 212.398438 110.652344 209.605469 C 114.035156 199.5625 118.90625 186.457031 122.378906 178.574219 C 128.515625 164.566406 133.476562 158.53125 138.210938 159.476562 C 141.234375 160.0625 143.082031 166.097656 143.082031 166.097656 C 143.082031 166.097656 146.644531 159.433594 150.796875 160.109375 C 154.132812 160.648438 153.953125 164.253906 153.773438 167.628906 C 156.433594 161.550781 163.515625 159.929688 164.867188 168.035156 C 165.769531 173.53125 157.199219 216.089844 156.433594 223.296875 C 156.433594 223.296875 159.589844 223.296875 161.53125 223.296875 C 161.980469 218.703125 165.679688 194.519531 166.988281 184.925781 C 168.386719 174.566406 169.332031 169.476562 167.664062 164.882812 C 164.28125 155.605469 157.246094 158.351562 155.847656 161.191406 C 156.660156 154.570312 147.773438 153.488281 143.847656 160.199219 C 141.820312 152.40625 132.890625 151.597656 125.355469 164.703125 C 122.46875 169.746094 118.683594 177.855469 114.804688 186.953125 C 107.902344 180.375 84.675781 154.117188 114.847656 117.097656 C 114.847656 107.683594 119.359375 77.238281 135.460938 56.074219 C 138.167969 54.722656 152.464844 62.78125 167.03125 76.160156 C 164.328125 77.058594 161.574219 78.140625 158.914062 79.492188 C 159.90625 80.664062 173.480469 76.292969 194.140625 76.292969 C 214.796875 76.292969 228.371094 80.664062 229.363281 79.492188 C 226.703125 78.140625 223.953125 77.058594 221.246094 76.160156 C 235.816406 62.78125 250.15625 54.722656 252.820312 56.074219 C 268.921875 77.238281 273.429688 107.730469 273.429688 117.097656 C 303.605469 154.117188 280.375 180.375 273.476562 186.953125 C 269.597656 177.898438 265.808594 169.746094 262.921875 164.703125 C 255.390625 151.640625 246.457031 152.453125 244.429688 160.199219 C 240.503906 153.488281 231.621094 154.570312 232.433594 161.191406 C 230.988281 158.398438 223.996094 155.605469 220.613281 164.882812 C 218.945312 169.476562 219.847656 174.566406 221.292969 184.925781 C 222.597656 194.519531 226.296875 218.703125 226.75 223.296875 C 228.644531 223.296875 231.84375 223.296875 231.84375 223.296875 C 231.125 216.089844 222.507812 173.574219 223.410156 168.035156 C 224.765625 159.882812 231.800781 161.503906 234.507812 167.628906 C 234.28125 164.253906 234.101562 160.648438 237.484375 160.109375 C 241.632812 159.433594 245.195312 166.097656 245.195312 166.097656 C 245.195312 166.097656 247.046875 160.0625 250.066406 159.476562 C 254.804688 158.53125 259.71875 164.566406 265.898438 178.574219 C 269.371094 186.457031 274.242188 199.5625 277.625 209.605469 C 278.574219 212.398438 280.511719 221.179688 278.527344 223.296875 C 278.707031 223.296875 283.039062 223.296875 284.480469 223.296875 C 285.292969 217.214844 282.496094 209.199219 281.773438 207.261719 C 279.65625 201.949219 277.398438 196.410156 275.191406 191.050781 Z M 105.332031 98.679688 C 99.378906 93.542969 93.46875 88.410156 87.5625 83.273438 C 86.164062 82.058594 82.238281 84.128906 84.132812 85.753906 C 90.042969 90.886719 95.949219 96.019531 101.859375 101.15625 C 103.300781 102.371094 107.179688 100.300781 105.332031 98.679688 Z M 99.199219 106.199219 C 91.035156 103.585938 82.871094 101.019531 74.707031 98.40625 C 72.8125 97.820312 69.472656 100.523438 72.136719 101.378906 C 80.300781 103.992188 88.460938 106.558594 96.625 109.171875 C 98.519531 109.757812 101.859375 107.007812 99.199219 106.199219 Z M 97.257812 115.613281 C 91.753906 117.054688 86.296875 118.539062 80.796875 119.980469 C 78.089844 120.699219 78.765625 123.269531 81.472656 122.546875 C 86.972656 121.105469 92.433594 119.621094 97.933594 118.179688 C 100.640625 117.457031 99.964844 114.890625 97.257812 115.613281 Z M 131.808594 94.128906 C 124.589844 101.875 122.785156 110.972656 122.785156 110.972656 C 122.785156 110.972656 133.023438 97.417969 136.183594 96.066406 C 134.0625 82.734375 137.941406 66.519531 137.941406 66.519531 C 133.070312 71.113281 130.226562 85.300781 131.808594 94.128906 Z M 131.808594 94.128906 " fill-opacity="1" fill-rule="nonzero"/></g><path fill="#ef5454" d="M 216.375 140.15625 C 216.554688 141.417969 216.644531 142.769531 216.554688 144.253906 C 216.148438 154.703125 208.796875 162.945312 193.460938 162.945312 C 186.921875 162.945312 181.871094 161.460938 178.171875 158.9375 C 190.035156 139.707031 210.871094 139.753906 216.375 140.15625 Z M 216.375 140.15625 C 216.554688 141.417969 216.644531 142.769531 216.554688 144.253906 C 216.148438 154.703125 208.796875 162.945312 193.460938 162.945312 C 186.921875 162.945312 181.871094 161.460938 178.171875 158.9375 C 190.035156 139.707031 210.871094 139.753906 216.375 140.15625 Z M 216.375 140.15625 " fill-opacity="1" fill-rule="nonzero"/><g fill="#ff993b" fill-opacity="0.302"><g transform="translate(32.019152, 274.144827)"><g><path d="M 10.71875 -47.96875 C 9.769531 -47.96875 8.886719 -47.765625 8.210938 -47.425781 C 7.53125 -47.085938 6.921875 -46.679688 6.445312 -46.136719 C 5.902344 -45.59375 5.5625 -45.050781 5.292969 -44.441406 C 5.019531 -43.761719 4.953125 -43.152344 4.953125 -42.609375 C 4.953125 -41.929688 5.089844 -41.25 5.359375 -40.640625 C 5.632812 -40.03125 5.96875 -39.488281 6.511719 -39.011719 C 6.988281 -38.46875 7.597656 -38.0625 8.34375 -37.792969 C 9.023438 -37.519531 9.839844 -37.382812 10.789062 -37.382812 L 18.660156 -37.382812 C 18.792969 -37.382812 18.996094 -37.25 19.199219 -37.113281 C 19.40625 -36.910156 19.539062 -36.636719 19.539062 -36.300781 L 19.539062 -5.359375 C 19.539062 -4.75 19.609375 -4.140625 19.878906 -3.527344 C 20.152344 -2.851562 20.492188 -2.308594 20.964844 -1.765625 C 21.441406 -1.222656 22.050781 -0.746094 22.730469 -0.40625 C 23.40625 -0.0664062 24.289062 0.0664062 25.238281 0.0664062 C 26.191406 0.0664062 27.003906 -0.0664062 27.75 -0.40625 C 28.429688 -0.746094 29.039062 -1.152344 29.515625 -1.695312 C 29.988281 -2.238281 30.328125 -2.78125 30.601562 -3.460938 C 30.804688 -4.070312 30.9375 -4.679688 30.9375 -5.292969 L 30.9375 -36.230469 C 30.9375 -36.570312 31.007812 -36.839844 31.277344 -37.046875 C 31.480469 -37.179688 31.683594 -37.316406 31.820312 -37.316406 L 39.691406 -37.316406 C 40.640625 -37.316406 41.457031 -37.453125 42.203125 -37.792969 C 42.878906 -38.132812 43.492188 -38.539062 43.964844 -39.082031 C 44.441406 -39.554688 44.78125 -40.097656 45.050781 -40.777344 C 45.253906 -41.457031 45.390625 -42.066406 45.390625 -42.675781 C 45.390625 -43.21875 45.253906 -43.832031 44.984375 -44.507812 C 44.710938 -45.121094 44.371094 -45.660156 43.898438 -46.203125 C 43.355469 -46.679688 42.746094 -47.085938 42.066406 -47.425781 C 41.386719 -47.765625 40.574219 -47.96875 39.625 -47.96875 Z M 10.71875 -47.96875 "/></g></g></g><g fill="#ff993b" fill-opacity="0.302"><g transform="translate(73.600169, 274.144827)"><g><path d="M 32.90625 -43.898438 C 32.5 -44.984375 31.683594 -45.933594 30.601562 -46.816406 C 29.445312 -47.628906 28.089844 -48.105469 26.527344 -48.105469 C 24.902344 -48.105469 23.542969 -47.628906 22.390625 -46.816406 C 21.238281 -46 20.421875 -44.984375 20.015625 -43.898438 L 5.429688 -7.261719 C 5.15625 -6.648438 5.089844 -6.039062 5.089844 -5.359375 C 5.089844 -4.75 5.15625 -4.140625 5.429688 -3.527344 C 5.699219 -2.851562 6.039062 -2.308594 6.511719 -1.832031 C 6.988281 -1.289062 7.597656 -0.882812 8.34375 -0.542969 C 9.023438 -0.203125 9.839844 -0.0664062 10.789062 -0.0664062 C 12.144531 -0.0664062 13.296875 -0.40625 14.25 -1.152344 C 15.128906 -1.832031 15.742188 -2.644531 16.148438 -3.597656 L 19.949219 -13.164062 C 20.015625 -13.296875 20.152344 -13.433594 20.285156 -13.570312 C 20.421875 -13.636719 20.625 -13.707031 20.761719 -13.707031 L 32.226562 -13.707031 C 32.5 -13.707031 32.769531 -13.5 33.042969 -13.164062 L 36.773438 -3.597656 C 37.113281 -2.644531 37.722656 -1.832031 38.671875 -1.152344 C 39.554688 -0.40625 40.710938 -0.0664062 42.132812 -0.0664062 C 43.082031 -0.0664062 43.898438 -0.203125 44.578125 -0.542969 C 45.253906 -0.882812 45.867188 -1.289062 46.410156 -1.832031 C 46.882812 -2.308594 47.222656 -2.851562 47.492188 -3.527344 C 47.765625 -4.140625 47.902344 -4.75 47.902344 -5.359375 C 47.902344 -6.039062 47.765625 -6.71875 47.492188 -7.261719 Z M 26.460938 -29.378906 C 26.597656 -28.972656 26.730469 -28.632812 26.867188 -28.292969 C 27.003906 -27.886719 27.207031 -27.546875 27.34375 -27.140625 C 27.480469 -26.664062 27.683594 -26.257812 27.886719 -25.851562 C 28.019531 -25.441406 28.15625 -25.035156 28.292969 -24.695312 C 28.359375 -24.492188 28.429688 -24.359375 28.429688 -24.359375 L 24.359375 -24.359375 C 24.425781 -24.425781 24.492188 -24.492188 24.492188 -24.628906 C 24.765625 -25.441406 25.105469 -26.191406 25.441406 -27.003906 C 25.714844 -27.816406 26.054688 -28.5625 26.460938 -29.378906 Z M 26.460938 -29.378906 "/></g></g></g><g fill="#ff993b" fill-opacity="0.302"><g transform="translate(117.487617, 274.144827)"><g><path d="M 40.03125 -14.65625 C 38.539062 -13.296875 37.046875 -12.347656 35.484375 -11.738281 C 33.925781 -11.058594 32.09375 -10.789062 29.988281 -10.789062 C 27.75 -10.789062 25.78125 -11.128906 24.152344 -11.804688 C 22.457031 -12.484375 21.03125 -13.367188 19.949219 -14.585938 C 18.792969 -15.808594 17.910156 -17.164062 17.371094 -18.792969 C 16.828125 -20.421875 16.554688 -22.1875 16.554688 -24.085938 C 16.554688 -25.917969 16.828125 -27.683594 17.371094 -29.3125 C 17.910156 -30.9375 18.792969 -32.296875 19.949219 -33.515625 C 21.03125 -34.738281 22.457031 -35.6875 24.152344 -36.367188 C 25.78125 -37.046875 27.75 -37.382812 29.988281 -37.382812 C 31.617188 -37.382812 33.246094 -37.113281 34.875 -36.636719 C 36.503906 -36.09375 37.996094 -35.28125 39.214844 -34.195312 C 39.351562 -34.058594 39.488281 -33.992188 39.625 -33.855469 L 40.03125 -33.449219 C 40.503906 -32.972656 41.046875 -32.566406 41.726562 -32.226562 C 42.335938 -31.890625 43.152344 -31.753906 44.167969 -31.753906 C 45.121094 -31.753906 45.933594 -31.890625 46.613281 -32.226562 C 47.289062 -32.566406 47.902344 -32.972656 48.445312 -33.515625 C 48.917969 -33.992188 49.257812 -34.535156 49.53125 -35.214844 C 49.800781 -35.890625 49.9375 -36.503906 49.9375 -37.113281 C 49.9375 -38.402344 49.460938 -39.625 48.511719 -40.710938 C 47.425781 -41.929688 46.136719 -43.015625 44.644531 -43.964844 C 43.152344 -44.914062 41.660156 -45.660156 40.03125 -46.273438 C 38.402344 -46.882812 36.707031 -47.359375 35.011719 -47.628906 C 33.246094 -47.902344 31.617188 -48.105469 29.988281 -48.105469 C 26.460938 -48.105469 23.136719 -47.492188 20.082031 -46.339844 C 17.03125 -45.1875 14.382812 -43.558594 12.210938 -41.457031 C 9.972656 -39.351562 8.210938 -36.839844 6.988281 -33.925781 C 5.699219 -30.9375 5.089844 -27.683594 5.089844 -24.085938 C 5.089844 -20.421875 5.699219 -17.164062 6.988281 -14.179688 C 8.210938 -11.195312 9.972656 -8.683594 12.210938 -6.582031 C 14.382812 -4.476562 17.03125 -2.851562 20.082031 -1.695312 C 23.136719 -0.542969 26.460938 0 29.988281 0 C 32.972656 0 35.824219 -0.40625 38.605469 -1.289062 C 41.386719 -2.171875 43.898438 -3.527344 46.136719 -5.292969 C 47.085938 -5.96875 47.902344 -6.785156 48.714844 -7.667969 C 49.53125 -8.550781 49.9375 -9.632812 49.9375 -10.992188 C 49.9375 -11.601562 49.800781 -12.210938 49.53125 -12.890625 C 49.257812 -13.5 48.917969 -14.042969 48.445312 -14.585938 C 47.902344 -15.0625 47.289062 -15.46875 46.613281 -15.808594 C 45.933594 -16.148438 45.121094 -16.351562 44.167969 -16.351562 C 43.152344 -16.351562 42.335938 -16.148438 41.726562 -15.808594 C 41.046875 -15.46875 40.503906 -15.0625 40.03125 -14.65625 Z M 40.03125 -14.65625 "/></g></g></g><g fill="#ff993b" fill-opacity="0.302"><g transform="translate(163.545816, 274.144827)"><g><path d="M 29.988281 0 C 33.515625 0 36.773438 -0.542969 39.828125 -1.695312 C 42.8125 -2.851562 45.457031 -4.476562 47.699219 -6.582031 C 49.867188 -8.683594 51.632812 -11.195312 52.921875 -14.179688 C 54.144531 -17.164062 54.820312 -20.421875 54.820312 -24.085938 C 54.820312 -27.683594 54.144531 -30.9375 52.921875 -33.925781 C 51.632812 -36.839844 49.867188 -39.351562 47.699219 -41.457031 C 45.457031 -43.558594 42.8125 -45.1875 39.828125 -46.339844 C 36.773438 -47.492188 33.515625 -48.105469 29.988281 -48.105469 C 26.460938 -48.105469 23.136719 -47.492188 20.082031 -46.339844 C 17.03125 -45.1875 14.382812 -43.558594 12.210938 -41.457031 C 9.972656 -39.351562 8.210938 -36.839844 6.988281 -33.925781 C 5.699219 -30.9375 5.089844 -27.683594 5.089844 -24.085938 C 5.089844 -20.421875 5.699219 -17.164062 6.988281 -14.179688 C 8.210938 -11.195312 9.972656 -8.683594 12.210938 -6.582031 C 14.382812 -4.476562 17.03125 -2.851562 20.082031 -1.695312 C 23.136719 -0.542969 26.460938 0 29.988281 0 Z M 43.355469 -24.085938 C 43.355469 -22.1875 43.015625 -20.421875 42.472656 -18.792969 C 41.929688 -17.164062 41.046875 -15.808594 39.960938 -14.585938 C 38.878906 -13.367188 37.453125 -12.484375 35.824219 -11.804688 C 34.128906 -11.128906 32.160156 -10.789062 29.988281 -10.789062 C 27.75 -10.789062 25.78125 -11.128906 24.152344 -11.804688 C 22.457031 -12.484375 21.03125 -13.367188 19.949219 -14.585938 C 18.792969 -15.808594 17.910156 -17.164062 17.371094 -18.792969 C 16.828125 -20.421875 16.554688 -22.1875 16.554688 -24.085938 C 16.554688 -25.917969 16.828125 -27.683594 17.371094 -29.3125 C 17.910156 -30.9375 18.792969 -32.296875 19.949219 -33.515625 C 21.03125 -34.738281 22.457031 -35.6875 24.152344 -36.367188 C 25.78125 -37.046875 27.75 -37.382812 29.988281 -37.382812 C 32.160156 -37.382812 34.128906 -37.046875 35.824219 -36.367188 C 37.453125 -35.6875 38.878906 -34.738281 39.960938 -33.515625 C 41.046875 -32.296875 41.929688 -30.9375 42.472656 -29.3125 C 43.015625 -27.683594 43.355469 -25.917969 43.355469 -24.085938 Z M 43.355469 -24.085938 "/></g></g></g><g fill="#ff993b" fill-opacity="0.302"><g transform="translate(214.420377, 274.144827)"><g><path d="M 40.03125 -14.65625 C 38.539062 -13.296875 37.046875 -12.347656 35.484375 -11.738281 C 33.925781 -11.058594 32.09375 -10.789062 29.988281 -10.789062 C 27.75 -10.789062 25.78125 -11.128906 24.152344 -11.804688 C 22.457031 -12.484375 21.03125 -13.367188 19.949219 -14.585938 C 18.792969 -15.808594 17.910156 -17.164062 17.371094 -18.792969 C 16.828125 -20.421875 16.554688 -22.1875 16.554688 -24.085938 C 16.554688 -25.917969 16.828125 -27.683594 17.371094 -29.3125 C 17.910156 -30.9375 18.792969 -32.296875 19.949219 -33.515625 C 21.03125 -34.738281 22.457031 -35.6875 24.152344 -36.367188 C 25.78125 -37.046875 27.75 -37.382812 29.988281 -37.382812 C 31.617188 -37.382812 33.246094 -37.113281 34.875 -36.636719 C 36.503906 -36.09375 37.996094 -35.28125 39.214844 -34.195312 C 39.351562 -34.058594 39.488281 -33.992188 39.625 -33.855469 L 40.03125 -33.449219 C 40.503906 -32.972656 41.046875 -32.566406 41.726562 -32.226562 C 42.335938 -31.890625 43.152344 -31.753906 44.167969 -31.753906 C 45.121094 -31.753906 45.933594 -31.890625 46.613281 -32.226562 C 47.289062 -32.566406 47.902344 -32.972656 48.445312 -33.515625 C 48.917969 -33.992188 49.257812 -34.535156 49.53125 -35.214844 C 49.800781 -35.890625 49.9375 -36.503906 49.9375 -37.113281 C 49.9375 -38.402344 49.460938 -39.625 48.511719 -40.710938 C 47.425781 -41.929688 46.136719 -43.015625 44.644531 -43.964844 C 43.152344 -44.914062 41.660156 -45.660156 40.03125 -46.273438 C 38.402344 -46.882812 36.707031 -47.359375 35.011719 -47.628906 C 33.246094 -47.902344 31.617188 -48.105469 29.988281 -48.105469 C 26.460938 -48.105469 23.136719 -47.492188 20.082031 -46.339844 C 17.03125 -45.1875 14.382812 -43.558594 12.210938 -41.457031 C 9.972656 -39.351562 8.210938 -36.839844 6.988281 -33.925781 C 5.699219 -30.9375 5.089844 -27.683594 5.089844 -24.085938 C 5.089844 -20.421875 5.699219 -17.164062 6.988281 -14.179688 C 8.210938 -11.195312 9.972656 -8.683594 12.210938 -6.582031 C 14.382812 -4.476562 17.03125 -2.851562 20.082031 -1.695312 C 23.136719 -0.542969 26.460938 0 29.988281 0 C 32.972656 0 35.824219 -0.40625 38.605469 -1.289062 C 41.386719 -2.171875 43.898438 -3.527344 46.136719 -5.292969 C 47.085938 -5.96875 47.902344 -6.785156 48.714844 -7.667969 C 49.53125 -8.550781 49.9375 -9.632812 49.9375 -10.992188 C 49.9375 -11.601562 49.800781 -12.210938 49.53125 -12.890625 C 49.257812 -13.5 48.917969 -14.042969 48.445312 -14.585938 C 47.902344 -15.0625 47.289062 -15.46875 46.613281 -15.808594 C 45.933594 -16.148438 45.121094 -16.351562 44.167969 -16.351562 C 43.152344 -16.351562 42.335938 -16.148438 41.726562 -15.808594 C 41.046875 -15.46875 40.503906 -15.0625 40.03125 -14.65625 Z M 40.03125 -14.65625 "/></g></g></g><g fill="#ff993b" fill-opacity="0.302"><g transform="translate(260.478576, 274.144827)"><g><path d="M 32.90625 -43.898438 C 32.5 -44.984375 31.683594 -45.933594 30.601562 -46.816406 C 29.445312 -47.628906 28.089844 -48.105469 26.527344 -48.105469 C 24.902344 -48.105469 23.542969 -47.628906 22.390625 -46.816406 C 21.238281 -46 20.421875 -44.984375 20.015625 -43.898438 L 5.429688 -7.261719 C 5.15625 -6.648438 5.089844 -6.039062 5.089844 -5.359375 C 5.089844 -4.75 5.15625 -4.140625 5.429688 -3.527344 C 5.699219 -2.851562 6.039062 -2.308594 6.511719 -1.832031 C 6.988281 -1.289062 7.597656 -0.882812 8.34375 -0.542969 C 9.023438 -0.203125 9.839844 -0.0664062 10.789062 -0.0664062 C 12.144531 -0.0664062 13.296875 -0.40625 14.25 -1.152344 C 15.128906 -1.832031 15.742188 -2.644531 16.148438 -3.597656 L 19.949219 -13.164062 C 20.015625 -13.296875 20.152344 -13.433594 20.285156 -13.570312 C 20.421875 -13.636719 20.625 -13.707031 20.761719 -13.707031 L 32.226562 -13.707031 C 32.5 -13.707031 32.769531 -13.5 33.042969 -13.164062 L 36.773438 -3.597656 C 37.113281 -2.644531 37.722656 -1.832031 38.671875 -1.152344 C 39.554688 -0.40625 40.710938 -0.0664062 42.132812 -0.0664062 C 43.082031 -0.0664062 43.898438 -0.203125 44.578125 -0.542969 C 45.253906 -0.882812 45.867188 -1.289062 46.410156 -1.832031 C 46.882812 -2.308594 47.222656 -2.851562 47.492188 -3.527344 C 47.765625 -4.140625 47.902344 -4.75 47.902344 -5.359375 C 47.902344 -6.039062 47.765625 -6.71875 47.492188 -7.261719 Z M 26.460938 -29.378906 C 26.597656 -28.972656 26.730469 -28.632812 26.867188 -28.292969 C 27.003906 -27.886719 27.207031 -27.546875 27.34375 -27.140625 C 27.480469 -26.664062 27.683594 -26.257812 27.886719 -25.851562 C 28.019531 -25.441406 28.15625 -25.035156 28.292969 -24.695312 C 28.359375 -24.492188 28.429688 -24.359375 28.429688 -24.359375 L 24.359375 -24.359375 C 24.425781 -24.425781 24.492188 -24.492188 24.492188 -24.628906 C 24.765625 -25.441406 25.105469 -26.191406 25.441406 -27.003906 C 25.714844 -27.816406 26.054688 -28.5625 26.460938 -29.378906 Z M 26.460938 -29.378906 "/></g></g></g><g fill="#ff993b" fill-opacity="0.302"><g transform="translate(304.36603, 274.144827)"><g><path d="M 10.71875 -47.96875 C 9.769531 -47.96875 8.886719 -47.765625 8.210938 -47.425781 C 7.53125 -47.085938 6.921875 -46.679688 6.445312 -46.136719 C 5.902344 -45.59375 5.5625 -45.050781 5.292969 -44.441406 C 5.019531 -43.761719 4.953125 -43.152344 4.953125 -42.609375 C 4.953125 -41.929688 5.089844 -41.25 5.359375 -40.640625 C 5.632812 -40.03125 5.96875 -39.488281 6.511719 -39.011719 C 6.988281 -38.46875 7.597656 -38.0625 8.34375 -37.792969 C 9.023438 -37.519531 9.839844 -37.382812 10.789062 -37.382812 L 18.660156 -37.382812 C 18.792969 -37.382812 18.996094 -37.25 19.199219 -37.113281 C 19.40625 -36.910156 19.539062 -36.636719 19.539062 -36.300781 L 19.539062 -5.359375 C 19.539062 -4.75 19.609375 -4.140625 19.878906 -3.527344 C 20.152344 -2.851562 20.492188 -2.308594 20.964844 -1.765625 C 21.441406 -1.222656 22.050781 -0.746094 22.730469 -0.40625 C 23.40625 -0.0664062 24.289062 0.0664062 25.238281 0.0664062 C 26.191406 0.0664062 27.003906 -0.0664062 27.75 -0.40625 C 28.429688 -0.746094 29.039062 -1.152344 29.515625 -1.695312 C 29.988281 -2.238281 30.328125 -2.78125 30.601562 -3.460938 C 30.804688 -4.070312 30.9375 -4.679688 30.9375 -5.292969 L 30.9375 -36.230469 C 30.9375 -36.570312 31.007812 -36.839844 31.277344 -37.046875 C 31.480469 -37.179688 31.683594 -37.316406 31.820312 -37.316406 L 39.691406 -37.316406 C 40.640625 -37.316406 41.457031 -37.453125 42.203125 -37.792969 C 42.878906 -38.132812 43.492188 -38.539062 43.964844 -39.082031 C 44.441406 -39.554688 44.78125 -40.097656 45.050781 -40.777344 C 45.253906 -41.457031 45.390625 -42.066406 45.390625 -42.675781 C 45.390625 -43.21875 45.253906 -43.832031 44.984375 -44.507812 C 44.710938 -45.121094 44.371094 -45.660156 43.898438 -46.203125 C 43.355469 -46.679688 42.746094 -47.085938 42.066406 -47.425781 C 41.386719 -47.765625 40.574219 -47.96875 39.625 -47.96875 Z M 10.71875 -47.96875 "/></g></g></g><g fill="#ff993b" fill-opacity="0.502"><g transform="translate(29.020344, 271.14603)"><g><path d="M 10.71875 -47.96875 C 9.769531 -47.96875 8.886719 -47.765625 8.210938 -47.425781 C 7.53125 -47.085938 6.921875 -46.679688 6.445312 -46.136719 C 5.902344 -45.59375 5.5625 -45.050781 5.292969 -44.441406 C 5.019531 -43.761719 4.953125 -43.152344 4.953125 -42.609375 C 4.953125 -41.929688 5.089844 -41.25 5.359375 -40.640625 C 5.632812 -40.03125 5.96875 -39.488281 6.511719 -39.011719 C 6.988281 -38.46875 7.597656 -38.0625 8.34375 -37.792969 C 9.023438 -37.519531 9.839844 -37.382812 10.789062 -37.382812 L 18.660156 -37.382812 C 18.792969 -37.382812 18.996094 -37.25 19.199219 -37.113281 C 19.40625 -36.910156 19.539062 -36.636719 19.539062 -36.300781 L 19.539062 -5.359375 C 19.539062 -4.75 19.609375 -4.140625 19.878906 -3.527344 C 20.152344 -2.851562 20.492188 -2.308594 20.964844 -1.765625 C 21.441406 -1.222656 22.050781 -0.746094 22.730469 -0.40625 C 23.40625 -0.0664062 24.289062 0.0664062 25.238281 0.0664062 C 26.191406 0.0664062 27.003906 -0.0664062 27.75 -0.40625 C 28.429688 -0.746094 29.039062 -1.152344 29.515625 -1.695312 C 29.988281 -2.238281 30.328125 -2.78125 30.601562 -3.460938 C 30.804688 -4.070312 30.9375 -4.679688 30.9375 -5.292969 L 30.9375 -36.230469 C 30.9375 -36.570312 31.007812 -36.839844 31.277344 -37.046875 C 31.480469 -37.179688 31.683594 -37.316406 31.820312 -37.316406 L 39.691406 -37.316406 C 40.640625 -37.316406 41.457031 -37.453125 42.203125 -37.792969 C 42.878906 -38.132812 43.492188 -38.539062 43.964844 -39.082031 C 44.441406 -39.554688 44.78125 -40.097656 45.050781 -40.777344 C 45.253906 -41.457031 45.390625 -42.066406 45.390625 -42.675781 C 45.390625 -43.21875 45.253906 -43.832031 44.984375 -44.507812 C 44.710938 -45.121094 44.371094 -45.660156 43.898438 -46.203125 C 43.355469 -46.679688 42.746094 -47.085938 42.066406 -47.425781 C 41.386719 -47.765625 40.574219 -47.96875 39.625 -47.96875 Z M 10.71875 -47.96875 "/></g></g></g><g fill="#ff993b" fill-opacity="0.502"><g transform="translate(70.601361, 271.14603)"><g><path d="M 32.90625 -43.898438 C 32.5 -44.984375 31.683594 -45.933594 30.601562 -46.816406 C 29.445312 -47.628906 28.089844 -48.105469 26.527344 -48.105469 C 24.902344 -48.105469 23.542969 -47.628906 22.390625 -46.816406 C 21.238281 -46 20.421875 -44.984375 20.015625 -43.898438 L 5.429688 -7.261719 C 5.15625 -6.648438 5.089844 -6.039062 5.089844 -5.359375 C 5.089844 -4.75 5.15625 -4.140625 5.429688 -3.527344 C 5.699219 -2.851562 6.039062 -2.308594 6.511719 -1.832031 C 6.988281 -1.289062 7.597656 -0.882812 8.34375 -0.542969 C 9.023438 -0.203125 9.839844 -0.0664062 10.789062 -0.0664062 C 12.144531 -0.0664062 13.296875 -0.40625 14.25 -1.152344 C 15.128906 -1.832031 15.742188 -2.644531 16.148438 -3.597656 L 19.949219 -13.164062 C 20.015625 -13.296875 20.152344 -13.433594 20.285156 -13.570312 C 20.421875 -13.636719 20.625 -13.707031 20.761719 -13.707031 L 32.226562 -13.707031 C 32.5 -13.707031 32.769531 -13.5 33.042969 -13.164062 L 36.773438 -3.597656 C 37.113281 -2.644531 37.722656 -1.832031 38.671875 -1.152344 C 39.554688 -0.40625 40.710938 -0.0664062 42.132812 -0.0664062 C 43.082031 -0.0664062 43.898438 -0.203125 44.578125 -0.542969 C 45.253906 -0.882812 45.867188 -1.289062 46.410156 -1.832031 C 46.882812 -2.308594 47.222656 -2.851562 47.492188 -3.527344 C 47.765625 -4.140625 47.902344 -4.75 47.902344 -5.359375 C 47.902344 -6.039062 47.765625 -6.71875 47.492188 -7.261719 Z M 26.460938 -29.378906 C 26.597656 -28.972656 26.730469 -28.632812 26.867188 -28.292969 C 27.003906 -27.886719 27.207031 -27.546875 27.34375 -27.140625 C 27.480469 -26.664062 27.683594 -26.257812 27.886719 -25.851562 C 28.019531 -25.441406 28.15625 -25.035156 28.292969 -24.695312 C 28.359375 -24.492188 28.429688 -24.359375 28.429688 -24.359375 L 24.359375 -24.359375 C 24.425781 -24.425781 24.492188 -24.492188 24.492188 -24.628906 C 24.765625 -25.441406 25.105469 -26.191406 25.441406 -27.003906 C 25.714844 -27.816406 26.054688 -28.5625 26.460938 -29.378906 Z M 26.460938 -29.378906 "/></g></g></g><g fill="#ff993b" fill-opacity="0.502"><g transform="translate(114.488809, 271.14603)"><g><path d="M 40.03125 -14.65625 C 38.539062 -13.296875 37.046875 -12.347656 35.484375 -11.738281 C 33.925781 -11.058594 32.09375 -10.789062 29.988281 -10.789062 C 27.75 -10.789062 25.78125 -11.128906 24.152344 -11.804688 C 22.457031 -12.484375 21.03125 -13.367188 19.949219 -14.585938 C 18.792969 -15.808594 17.910156 -17.164062 17.371094 -18.792969 C 16.828125 -20.421875 16.554688 -22.1875 16.554688 -24.085938 C 16.554688 -25.917969 16.828125 -27.683594 17.371094 -29.3125 C 17.910156 -30.9375 18.792969 -32.296875 19.949219 -33.515625 C 21.03125 -34.738281 22.457031 -35.6875 24.152344 -36.367188 C 25.78125 -37.046875 27.75 -37.382812 29.988281 -37.382812 C 31.617188 -37.382812 33.246094 -37.113281 34.875 -36.636719 C 36.503906 -36.09375 37.996094 -35.28125 39.214844 -34.195312 C 39.351562 -34.058594 39.488281 -33.992188 39.625 -33.855469 L 40.03125 -33.449219 C 40.503906 -32.972656 41.046875 -32.566406 41.726562 -32.226562 C 42.335938 -31.890625 43.152344 -31.753906 44.167969 -31.753906 C 45.121094 -31.753906 45.933594 -31.890625 46.613281 -32.226562 C 47.289062 -32.566406 47.902344 -32.972656 48.445312 -33.515625 C 48.917969 -33.992188 49.257812 -34.535156 49.53125 -35.214844 C 49.800781 -35.890625 49.9375 -36.503906 49.9375 -37.113281 C 49.9375 -38.402344 49.460938 -39.625 48.511719 -40.710938 C 47.425781 -41.929688 46.136719 -43.015625 44.644531 -43.964844 C 43.152344 -44.914062 41.660156 -45.660156 40.03125 -46.273438 C 38.402344 -46.882812 36.707031 -47.359375 35.011719 -47.628906 C 33.246094 -47.902344 31.617188 -48.105469 29.988281 -48.105469 C 26.460938 -48.105469 23.136719 -47.492188 20.082031 -46.339844 C 17.03125 -45.1875 14.382812 -43.558594 12.210938 -41.457031 C 9.972656 -39.351562 8.210938 -36.839844 6.988281 -33.925781 C 5.699219 -30.9375 5.089844 -27.683594 5.089844 -24.085938 C 5.089844 -20.421875 5.699219 -17.164062 6.988281 -14.179688 C 8.210938 -11.195312 9.972656 -8.683594 12.210938 -6.582031 C 14.382812 -4.476562 17.03125 -2.851562 20.082031 -1.695312 C 23.136719 -0.542969 26.460938 0 29.988281 0 C 32.972656 0 35.824219 -0.40625 38.605469 -1.289062 C 41.386719 -2.171875 43.898438 -3.527344 46.136719 -5.292969 C 47.085938 -5.96875 47.902344 -6.785156 48.714844 -7.667969 C 49.53125 -8.550781 49.9375 -9.632812 49.9375 -10.992188 C 49.9375 -11.601562 49.800781 -12.210938 49.53125 -12.890625 C 49.257812 -13.5 48.917969 -14.042969 48.445312 -14.585938 C 47.902344 -15.0625 47.289062 -15.46875 46.613281 -15.808594 C 45.933594 -16.148438 45.121094 -16.351562 44.167969 -16.351562 C 43.152344 -16.351562 42.335938 -16.148438 41.726562 -15.808594 C 41.046875 -15.46875 40.503906 -15.0625 40.03125 -14.65625 Z M 40.03125 -14.65625 "/></g></g></g><g fill="#ff993b" fill-opacity="0.502"><g transform="translate(160.547008, 271.14603)"><g><path d="M 29.988281 0 C 33.515625 0 36.773438 -0.542969 39.828125 -1.695312 C 42.8125 -2.851562 45.457031 -4.476562 47.699219 -6.582031 C 49.867188 -8.683594 51.632812 -11.195312 52.921875 -14.179688 C 54.144531 -17.164062 54.820312 -20.421875 54.820312 -24.085938 C 54.820312 -27.683594 54.144531 -30.9375 52.921875 -33.925781 C 51.632812 -36.839844 49.867188 -39.351562 47.699219 -41.457031 C 45.457031 -43.558594 42.8125 -45.1875 39.828125 -46.339844 C 36.773438 -47.492188 33.515625 -48.105469 29.988281 -48.105469 C 26.460938 -48.105469 23.136719 -47.492188 20.082031 -46.339844 C 17.03125 -45.1875 14.382812 -43.558594 12.210938 -41.457031 C 9.972656 -39.351562 8.210938 -36.839844 6.988281 -33.925781 C 5.699219 -30.9375 5.089844 -27.683594 5.089844 -24.085938 C 5.089844 -20.421875 5.699219 -17.164062 6.988281 -14.179688 C 8.210938 -11.195312 9.972656 -8.683594 12.210938 -6.582031 C 14.382812 -4.476562 17.03125 -2.851562 20.082031 -1.695312 C 23.136719 -0.542969 26.460938 0 29.988281 0 Z M 43.355469 -24.085938 C 43.355469 -22.1875 43.015625 -20.421875 42.472656 -18.792969 C 41.929688 -17.164062 41.046875 -15.808594 39.960938 -14.585938 C 38.878906 -13.367188 37.453125 -12.484375 35.824219 -11.804688 C 34.128906 -11.128906 32.160156 -10.789062 29.988281 -10.789062 C 27.75 -10.789062 25.78125 -11.128906 24.152344 -11.804688 C 22.457031 -12.484375 21.03125 -13.367188 19.949219 -14.585938 C 18.792969 -15.808594 17.910156 -17.164062 17.371094 -18.792969 C 16.828125 -20.421875 16.554688 -22.1875 16.554688 -24.085938 C 16.554688 -25.917969 16.828125 -27.683594 17.371094 -29.3125 C 17.910156 -30.9375 18.792969 -32.296875 19.949219 -33.515625 C 21.03125 -34.738281 22.457031 -35.6875 24.152344 -36.367188 C 25.78125 -37.046875 27.75 -37.382812 29.988281 -37.382812 C 32.160156 -37.382812 34.128906 -37.046875 35.824219 -36.367188 C 37.453125 -35.6875 38.878906 -34.738281 39.960938 -33.515625 C 41.046875 -32.296875 41.929688 -30.9375 42.472656 -29.3125 C 43.015625 -27.683594 43.355469 -25.917969 43.355469 -24.085938 Z M 43.355469 -24.085938 "/></g></g></g><g fill="#ff993b" fill-opacity="0.502"><g transform="translate(211.421569, 271.14603)"><g><path d="M 40.03125 -14.65625 C 38.539062 -13.296875 37.046875 -12.347656 35.484375 -11.738281 C 33.925781 -11.058594 32.09375 -10.789062 29.988281 -10.789062 C 27.75 -10.789062 25.78125 -11.128906 24.152344 -11.804688 C 22.457031 -12.484375 21.03125 -13.367188 19.949219 -14.585938 C 18.792969 -15.808594 17.910156 -17.164062 17.371094 -18.792969 C 16.828125 -20.421875 16.554688 -22.1875 16.554688 -24.085938 C 16.554688 -25.917969 16.828125 -27.683594 17.371094 -29.3125 C 17.910156 -30.9375 18.792969 -32.296875 19.949219 -33.515625 C 21.03125 -34.738281 22.457031 -35.6875 24.152344 -36.367188 C 25.78125 -37.046875 27.75 -37.382812 29.988281 -37.382812 C 31.617188 -37.382812 33.246094 -37.113281 34.875 -36.636719 C 36.503906 -36.09375 37.996094 -35.28125 39.214844 -34.195312 C 39.351562 -34.058594 39.488281 -33.992188 39.625 -33.855469 L 40.03125 -33.449219 C 40.503906 -32.972656 41.046875 -32.566406 41.726562 -32.226562 C 42.335938 -31.890625 43.152344 -31.753906 44.167969 -31.753906 C 45.121094 -31.753906 45.933594 -31.890625 46.613281 -32.226562 C 47.289062 -32.566406 47.902344 -32.972656 48.445312 -33.515625 C 48.917969 -33.992188 49.257812 -34.535156 49.53125 -35.214844 C 49.800781 -35.890625 49.9375 -36.503906 49.9375 -37.113281 C 49.9375 -38.402344 49.460938 -39.625 48.511719 -40.710938 C 47.425781 -41.929688 46.136719 -43.015625 44.644531 -43.964844 C 43.152344 -44.914062 41.660156 -45.660156 40.03125 -46.273438 C 38.402344 -46.882812 36.707031 -47.359375 35.011719 -47.628906 C 33.246094 -47.902344 31.617188 -48.105469 29.988281 -48.105469 C 26.460938 -48.105469 23.136719 -47.492188 20.082031 -46.339844 C 17.03125 -45.1875 14.382812 -43.558594 12.210938 -41.457031 C 9.972656 -39.351562 8.210938 -36.839844 6.988281 -33.925781 C 5.699219 -30.9375 5.089844 -27.683594 5.089844 -24.085938 C 5.089844 -20.421875 5.699219 -17.164062 6.988281 -14.179688 C 8.210938 -11.195312 9.972656 -8.683594 12.210938 -6.582031 C 14.382812 -4.476562 17.03125 -2.851562 20.082031 -1.695312 C 23.136719 -0.542969 26.460938 0 29.988281 0 C 32.972656 0 35.824219 -0.40625 38.605469 -1.289062 C 41.386719 -2.171875 43.898438 -3.527344 46.136719 -5.292969 C 47.085938 -5.96875 47.902344 -6.785156 48.714844 -7.667969 C 49.53125 -8.550781 49.9375 -9.632812 49.9375 -10.992188 C 49.9375 -11.601562 49.800781 -12.210938 49.53125 -12.890625 C 49.257812 -13.5 48.917969 -14.042969 48.445312 -14.585938 C 47.902344 -15.0625 47.289062 -15.46875 46.613281 -15.808594 C 45.933594 -16.148438 45.121094 -16.351562 44.167969 -16.351562 C 43.152344 -16.351562 42.335938 -16.148438 41.726562 -15.808594 C 41.046875 -15.46875 40.503906 -15.0625 40.03125 -14.65625 Z M 40.03125 -14.65625 "/></g></g></g><g fill="#ff993b" fill-opacity="0.502"><g transform="translate(257.479768, 271.14603)"><g><path d="M 32.90625 -43.898438 C 32.5 -44.984375 31.683594 -45.933594 30.601562 -46.816406 C 29.445312 -47.628906 28.089844 -48.105469 26.527344 -48.105469 C 24.902344 -48.105469 23.542969 -47.628906 22.390625 -46.816406 C 21.238281 -46 20.421875 -44.984375 20.015625 -43.898438 L 5.429688 -7.261719 C 5.15625 -6.648438 5.089844 -6.039062 5.089844 -5.359375 C 5.089844 -4.75 5.15625 -4.140625 5.429688 -3.527344 C 5.699219 -2.851562 6.039062 -2.308594 6.511719 -1.832031 C 6.988281 -1.289062 7.597656 -0.882812 8.34375 -0.542969 C 9.023438 -0.203125 9.839844 -0.0664062 10.789062 -0.0664062 C 12.144531 -0.0664062 13.296875 -0.40625 14.25 -1.152344 C 15.128906 -1.832031 15.742188 -2.644531 16.148438 -3.597656 L 19.949219 -13.164062 C 20.015625 -13.296875 20.152344 -13.433594 20.285156 -13.570312 C 20.421875 -13.636719 20.625 -13.707031 20.761719 -13.707031 L 32.226562 -13.707031 C 32.5 -13.707031 32.769531 -13.5 33.042969 -13.164062 L 36.773438 -3.597656 C 37.113281 -2.644531 37.722656 -1.832031 38.671875 -1.152344 C 39.554688 -0.40625 40.710938 -0.0664062 42.132812 -0.0664062 C 43.082031 -0.0664062 43.898438 -0.203125 44.578125 -0.542969 C 45.253906 -0.882812 45.867188 -1.289062 46.410156 -1.832031 C 46.882812 -2.308594 47.222656 -2.851562 47.492188 -3.527344 C 47.765625 -4.140625 47.902344 -4.75 47.902344 -5.359375 C 47.902344 -6.039062 47.765625 -6.71875 47.492188 -7.261719 Z M 26.460938 -29.378906 C 26.597656 -28.972656 26.730469 -28.632812 26.867188 -28.292969 C 27.003906 -27.886719 27.207031 -27.546875 27.34375 -27.140625 C 27.480469 -26.664062 27.683594 -26.257812 27.886719 -25.851562 C 28.019531 -25.441406 28.15625 -25.035156 28.292969 -24.695312 C 28.359375 -24.492188 28.429688 -24.359375 28.429688 -24.359375 L 24.359375 -24.359375 C 24.425781 -24.425781 24.492188 -24.492188 24.492188 -24.628906 C 24.765625 -25.441406 25.105469 -26.191406 25.441406 -27.003906 C 25.714844 -27.816406 26.054688 -28.5625 26.460938 -29.378906 Z M 26.460938 -29.378906 "/></g></g></g><g fill="#ff993b" fill-opacity="0.502"><g transform="translate(301.367223, 271.14603)"><g><path d="M 10.71875 -47.96875 C 9.769531 -47.96875 8.886719 -47.765625 8.210938 -47.425781 C 7.53125 -47.085938 6.921875 -46.679688 6.445312 -46.136719 C 5.902344 -45.59375 5.5625 -45.050781 5.292969 -44.441406 C 5.019531 -43.761719 4.953125 -43.152344 4.953125 -42.609375 C 4.953125 -41.929688 5.089844 -41.25 5.359375 -40.640625 C 5.632812 -40.03125 5.96875 -39.488281 6.511719 -39.011719 C 6.988281 -38.46875 7.597656 -38.0625 8.34375 -37.792969 C 9.023438 -37.519531 9.839844 -37.382812 10.789062 -37.382812 L 18.660156 -37.382812 C 18.792969 -37.382812 18.996094 -37.25 19.199219 -37.113281 C 19.40625 -36.910156 19.539062 -36.636719 19.539062 -36.300781 L 19.539062 -5.359375 C 19.539062 -4.75 19.609375 -4.140625 19.878906 -3.527344 C 20.152344 -2.851562 20.492188 -2.308594 20.964844 -1.765625 C 21.441406 -1.222656 22.050781 -0.746094 22.730469 -0.40625 C 23.40625 -0.0664062 24.289062 0.0664062 25.238281 0.0664062 C 26.191406 0.0664062 27.003906 -0.0664062 27.75 -0.40625 C 28.429688 -0.746094 29.039062 -1.152344 29.515625 -1.695312 C 29.988281 -2.238281 30.328125 -2.78125 30.601562 -3.460938 C 30.804688 -4.070312 30.9375 -4.679688 30.9375 -5.292969 L 30.9375 -36.230469 C 30.9375 -36.570312 31.007812 -36.839844 31.277344 -37.046875 C 31.480469 -37.179688 31.683594 -37.316406 31.820312 -37.316406 L 39.691406 -37.316406 C 40.640625 -37.316406 41.457031 -37.453125 42.203125 -37.792969 C 42.878906 -38.132812 43.492188 -38.539062 43.964844 -39.082031 C 44.441406 -39.554688 44.78125 -40.097656 45.050781 -40.777344 C 45.253906 -41.457031 45.390625 -42.066406 45.390625 -42.675781 C 45.390625 -43.21875 45.253906 -43.832031 44.984375 -44.507812 C 44.710938 -45.121094 44.371094 -45.660156 43.898438 -46.203125 C 43.355469 -46.679688 42.746094 -47.085938 42.066406 -47.425781 C 41.386719 -47.765625 40.574219 -47.96875 39.625 -47.96875 Z M 10.71875 -47.96875 "/></g></g></g><g fill="#ef5454" fill-opacity="1"><g transform="translate(26.021537, 268.147216)"><g><path d="M 10.71875 -47.96875 C 9.769531 -47.96875 8.886719 -47.765625 8.210938 -47.425781 C 7.53125 -47.085938 6.921875 -46.679688 6.445312 -46.136719 C 5.902344 -45.59375 5.5625 -45.050781 5.292969 -44.441406 C 5.019531 -43.761719 4.953125 -43.152344 4.953125 -42.609375 C 4.953125 -41.929688 5.089844 -41.25 5.359375 -40.640625 C 5.632812 -40.03125 5.96875 -39.488281 6.511719 -39.011719 C 6.988281 -38.46875 7.597656 -38.0625 8.34375 -37.792969 C 9.023438 -37.519531 9.839844 -37.382812 10.789062 -37.382812 L 18.660156 -37.382812 C 18.792969 -37.382812 18.996094 -37.25 19.199219 -37.113281 C 19.40625 -36.910156 19.539062 -36.636719 19.539062 -36.300781 L 19.539062 -5.359375 C 19.539062 -4.75 19.609375 -4.140625 19.878906 -3.527344 C 20.152344 -2.851562 20.492188 -2.308594 20.964844 -1.765625 C 21.441406 -1.222656 22.050781 -0.746094 22.730469 -0.40625 C 23.40625 -0.0664062 24.289062 0.0664062 25.238281 0.0664062 C 26.191406 0.0664062 27.003906 -0.0664062 27.75 -0.40625 C 28.429688 -0.746094 29.039062 -1.152344 29.515625 -1.695312 C 29.988281 -2.238281 30.328125 -2.78125 30.601562 -3.460938 C 30.804688 -4.070312 30.9375 -4.679688 30.9375 -5.292969 L 30.9375 -36.230469 C 30.9375 -36.570312 31.007812 -36.839844 31.277344 -37.046875 C 31.480469 -37.179688 31.683594 -37.316406 31.820312 -37.316406 L 39.691406 -37.316406 C 40.640625 -37.316406 41.457031 -37.453125 42.203125 -37.792969 C 42.878906 -38.132812 43.492188 -38.539062 43.964844 -39.082031 C 44.441406 -39.554688 44.78125 -40.097656 45.050781 -40.777344 C 45.253906 -41.457031 45.390625 -42.066406 45.390625 -42.675781 C 45.390625 -43.21875 45.253906 -43.832031 44.984375 -44.507812 C 44.710938 -45.121094 44.371094 -45.660156 43.898438 -46.203125 C 43.355469 -46.679688 42.746094 -47.085938 42.066406 -47.425781 C 41.386719 -47.765625 40.574219 -47.96875 39.625 -47.96875 Z M 10.71875 -47.96875 "/></g></g></g><g fill="#ef5454" fill-opacity="1"><g transform="translate(67.602554, 268.147216)"><g><path d="M 32.90625 -43.898438 C 32.5 -44.984375 31.683594 -45.933594 30.601562 -46.816406 C 29.445312 -47.628906 28.089844 -48.105469 26.527344 -48.105469 C 24.902344 -48.105469 23.542969 -47.628906 22.390625 -46.816406 C 21.238281 -46 20.421875 -44.984375 20.015625 -43.898438 L 5.429688 -7.261719 C 5.15625 -6.648438 5.089844 -6.039062 5.089844 -5.359375 C 5.089844 -4.75 5.15625 -4.140625 5.429688 -3.527344 C 5.699219 -2.851562 6.039062 -2.308594 6.511719 -1.832031 C 6.988281 -1.289062 7.597656 -0.882812 8.34375 -0.542969 C 9.023438 -0.203125 9.839844 -0.0664062 10.789062 -0.0664062 C 12.144531 -0.0664062 13.296875 -0.40625 14.25 -1.152344 C 15.128906 -1.832031 15.742188 -2.644531 16.148438 -3.597656 L 19.949219 -13.164062 C 20.015625 -13.296875 20.152344 -13.433594 20.285156 -13.570312 C 20.421875 -13.636719 20.625 -13.707031 20.761719 -13.707031 L 32.226562 -13.707031 C 32.5 -13.707031 32.769531 -13.5 33.042969 -13.164062 L 36.773438 -3.597656 C 37.113281 -2.644531 37.722656 -1.832031 38.671875 -1.152344 C 39.554688 -0.40625 40.710938 -0.0664062 42.132812 -0.0664062 C 43.082031 -0.0664062 43.898438 -0.203125 44.578125 -0.542969 C 45.253906 -0.882812 45.867188 -1.289062 46.410156 -1.832031 C 46.882812 -2.308594 47.222656 -2.851562 47.492188 -3.527344 C 47.765625 -4.140625 47.902344 -4.75 47.902344 -5.359375 C 47.902344 -6.039062 47.765625 -6.71875 47.492188 -7.261719 Z M 26.460938 -29.378906 C 26.597656 -28.972656 26.730469 -28.632812 26.867188 -28.292969 C 27.003906 -27.886719 27.207031 -27.546875 27.34375 -27.140625 C 27.480469 -26.664062 27.683594 -26.257812 27.886719 -25.851562 C 28.019531 -25.441406 28.15625 -25.035156 28.292969 -24.695312 C 28.359375 -24.492188 28.429688 -24.359375 28.429688 -24.359375 L 24.359375 -24.359375 C 24.425781 -24.425781 24.492188 -24.492188 24.492188 -24.628906 C 24.765625 -25.441406 25.105469 -26.191406 25.441406 -27.003906 C 25.714844 -27.816406 26.054688 -28.5625 26.460938 -29.378906 Z M 26.460938 -29.378906 "/></g></g></g><g fill="#ef5454" fill-opacity="1"><g transform="translate(111.490002, 268.147216)"><g><path d="M 40.03125 -14.65625 C 38.539062 -13.296875 37.046875 -12.347656 35.484375 -11.738281 C 33.925781 -11.058594 32.09375 -10.789062 29.988281 -10.789062 C 27.75 -10.789062 25.78125 -11.128906 24.152344 -11.804688 C 22.457031 -12.484375 21.03125 -13.367188 19.949219 -14.585938 C 18.792969 -15.808594 17.910156 -17.164062 17.371094 -18.792969 C 16.828125 -20.421875 16.554688 -22.1875 16.554688 -24.085938 C 16.554688 -25.917969 16.828125 -27.683594 17.371094 -29.3125 C 17.910156 -30.9375 18.792969 -32.296875 19.949219 -33.515625 C 21.03125 -34.738281 22.457031 -35.6875 24.152344 -36.367188 C 25.78125 -37.046875 27.75 -37.382812 29.988281 -37.382812 C 31.617188 -37.382812 33.246094 -37.113281 34.875 -36.636719 C 36.503906 -36.09375 37.996094 -35.28125 39.214844 -34.195312 C 39.351562 -34.058594 39.488281 -33.992188 39.625 -33.855469 L 40.03125 -33.449219 C 40.503906 -32.972656 41.046875 -32.566406 41.726562 -32.226562 C 42.335938 -31.890625 43.152344 -31.753906 44.167969 -31.753906 C 45.121094 -31.753906 45.933594 -31.890625 46.613281 -32.226562 C 47.289062 -32.566406 47.902344 -32.972656 48.445312 -33.515625 C 48.917969 -33.992188 49.257812 -34.535156 49.53125 -35.214844 C 49.800781 -35.890625 49.9375 -36.503906 49.9375 -37.113281 C 49.9375 -38.402344 49.460938 -39.625 48.511719 -40.710938 C 47.425781 -41.929688 46.136719 -43.015625 44.644531 -43.964844 C 43.152344 -44.914062 41.660156 -45.660156 40.03125 -46.273438 C 38.402344 -46.882812 36.707031 -47.359375 35.011719 -47.628906 C 33.246094 -47.902344 31.617188 -48.105469 29.988281 -48.105469 C 26.460938 -48.105469 23.136719 -47.492188 20.082031 -46.339844 C 17.03125 -45.1875 14.382812 -43.558594 12.210938 -41.457031 C 9.972656 -39.351562 8.210938 -36.839844 6.988281 -33.925781 C 5.699219 -30.9375 5.089844 -27.683594 5.089844 -24.085938 C 5.089844 -20.421875 5.699219 -17.164062 6.988281 -14.179688 C 8.210938 -11.195312 9.972656 -8.683594 12.210938 -6.582031 C 14.382812 -4.476562 17.03125 -2.851562 20.082031 -1.695312 C 23.136719 -0.542969 26.460938 0 29.988281 0 C 32.972656 0 35.824219 -0.40625 38.605469 -1.289062 C 41.386719 -2.171875 43.898438 -3.527344 46.136719 -5.292969 C 47.085938 -5.96875 47.902344 -6.785156 48.714844 -7.667969 C 49.53125 -8.550781 49.9375 -9.632812 49.9375 -10.992188 C 49.9375 -11.601562 49.800781 -12.210938 49.53125 -12.890625 C 49.257812 -13.5 48.917969 -14.042969 48.445312 -14.585938 C 47.902344 -15.0625 47.289062 -15.46875 46.613281 -15.808594 C 45.933594 -16.148438 45.121094 -16.351562 44.167969 -16.351562 C 43.152344 -16.351562 42.335938 -16.148438 41.726562 -15.808594 C 41.046875 -15.46875 40.503906 -15.0625 40.03125 -14.65625 Z M 40.03125 -14.65625 "/></g></g></g><g fill="#ef5454" fill-opacity="1"><g transform="translate(157.548201, 268.147216)"><g><path d="M 29.988281 0 C 33.515625 0 36.773438 -0.542969 39.828125 -1.695312 C 42.8125 -2.851562 45.457031 -4.476562 47.699219 -6.582031 C 49.867188 -8.683594 51.632812 -11.195312 52.921875 -14.179688 C 54.144531 -17.164062 54.820312 -20.421875 54.820312 -24.085938 C 54.820312 -27.683594 54.144531 -30.9375 52.921875 -33.925781 C 51.632812 -36.839844 49.867188 -39.351562 47.699219 -41.457031 C 45.457031 -43.558594 42.8125 -45.1875 39.828125 -46.339844 C 36.773438 -47.492188 33.515625 -48.105469 29.988281 -48.105469 C 26.460938 -48.105469 23.136719 -47.492188 20.082031 -46.339844 C 17.03125 -45.1875 14.382812 -43.558594 12.210938 -41.457031 C 9.972656 -39.351562 8.210938 -36.839844 6.988281 -33.925781 C 5.699219 -30.9375 5.089844 -27.683594 5.089844 -24.085938 C 5.089844 -20.421875 5.699219 -17.164062 6.988281 -14.179688 C 8.210938 -11.195312 9.972656 -8.683594 12.210938 -6.582031 C 14.382812 -4.476562 17.03125 -2.851562 20.082031 -1.695312 C 23.136719 -0.542969 26.460938 0 29.988281 0 Z M 43.355469 -24.085938 C 43.355469 -22.1875 43.015625 -20.421875 42.472656 -18.792969 C 41.929688 -17.164062 41.046875 -15.808594 39.960938 -14.585938 C 38.878906 -13.367188 37.453125 -12.484375 35.824219 -11.804688 C 34.128906 -11.128906 32.160156 -10.789062 29.988281 -10.789062 C 27.75 -10.789062 25.78125 -11.128906 24.152344 -11.804688 C 22.457031 -12.484375 21.03125 -13.367188 19.949219 -14.585938 C 18.792969 -15.808594 17.910156 -17.164062 17.371094 -18.792969 C 16.828125 -20.421875 16.554688 -22.1875 16.554688 -24.085938 C 16.554688 -25.917969 16.828125 -27.683594 17.371094 -29.3125 C 17.910156 -30.9375 18.792969 -32.296875 19.949219 -33.515625 C 21.03125 -34.738281 22.457031 -35.6875 24.152344 -36.367188 C 25.78125 -37.046875 27.75 -37.382812 29.988281 -37.382812 C 32.160156 -37.382812 34.128906 -37.046875 35.824219 -36.367188 C 37.453125 -35.6875 38.878906 -34.738281 39.960938 -33.515625 C 41.046875 -32.296875 41.929688 -30.9375 42.472656 -29.3125 C 43.015625 -27.683594 43.355469 -25.917969 43.355469 -24.085938 Z M 43.355469 -24.085938 "/></g></g></g><g fill="#ef5454" fill-opacity="1"><g transform="translate(208.422762, 268.147216)"><g><path d="M 40.03125 -14.65625 C 38.539062 -13.296875 37.046875 -12.347656 35.484375 -11.738281 C 33.925781 -11.058594 32.09375 -10.789062 29.988281 -10.789062 C 27.75 -10.789062 25.78125 -11.128906 24.152344 -11.804688 C 22.457031 -12.484375 21.03125 -13.367188 19.949219 -14.585938 C 18.792969 -15.808594 17.910156 -17.164062 17.371094 -18.792969 C 16.828125 -20.421875 16.554688 -22.1875 16.554688 -24.085938 C 16.554688 -25.917969 16.828125 -27.683594 17.371094 -29.3125 C 17.910156 -30.9375 18.792969 -32.296875 19.949219 -33.515625 C 21.03125 -34.738281 22.457031 -35.6875 24.152344 -36.367188 C 25.78125 -37.046875 27.75 -37.382812 29.988281 -37.382812 C 31.617188 -37.382812 33.246094 -37.113281 34.875 -36.636719 C 36.503906 -36.09375 37.996094 -35.28125 39.214844 -34.195312 C 39.351562 -34.058594 39.488281 -33.992188 39.625 -33.855469 L 40.03125 -33.449219 C 40.503906 -32.972656 41.046875 -32.566406 41.726562 -32.226562 C 42.335938 -31.890625 43.152344 -31.753906 44.167969 -31.753906 C 45.121094 -31.753906 45.933594 -31.890625 46.613281 -32.226562 C 47.289062 -32.566406 47.902344 -32.972656 48.445312 -33.515625 C 48.917969 -33.992188 49.257812 -34.535156 49.53125 -35.214844 C 49.800781 -35.890625 49.9375 -36.503906 49.9375 -37.113281 C 49.9375 -38.402344 49.460938 -39.625 48.511719 -40.710938 C 47.425781 -41.929688 46.136719 -43.015625 44.644531 -43.964844 C 43.152344 -44.914062 41.660156 -45.660156 40.03125 -46.273438 C 38.402344 -46.882812 36.707031 -47.359375 35.011719 -47.628906 C 33.246094 -47.902344 31.617188 -48.105469 29.988281 -48.105469 C 26.460938 -48.105469 23.136719 -47.492188 20.082031 -46.339844 C 17.03125 -45.1875 14.382812 -43.558594 12.210938 -41.457031 C 9.972656 -39.351562 8.210938 -36.839844 6.988281 -33.925781 C 5.699219 -30.9375 5.089844 -27.683594 5.089844 -24.085938 C 5.089844 -20.421875 5.699219 -17.164062 6.988281 -14.179688 C 8.210938 -11.195312 9.972656 -8.683594 12.210938 -6.582031 C 14.382812 -4.476562 17.03125 -2.851562 20.082031 -1.695312 C 23.136719 -0.542969 26.460938 0 29.988281 0 C 32.972656 0 35.824219 -0.40625 38.605469 -1.289062 C 41.386719 -2.171875 43.898438 -3.527344 46.136719 -5.292969 C 47.085938 -5.96875 47.902344 -6.785156 48.714844 -7.667969 C 49.53125 -8.550781 49.9375 -9.632812 49.9375 -10.992188 C 49.9375 -11.601562 49.800781 -12.210938 49.53125 -12.890625 C 49.257812 -13.5 48.917969 -14.042969 48.445312 -14.585938 C 47.902344 -15.0625 47.289062 -15.46875 46.613281 -15.808594 C 45.933594 -16.148438 45.121094 -16.351562 44.167969 -16.351562 C 43.152344 -16.351562 42.335938 -16.148438 41.726562 -15.808594 C 41.046875 -15.46875 40.503906 -15.0625 40.03125 -14.65625 Z M 40.03125 -14.65625 "/></g></g></g><g fill="#ef5454" fill-opacity="1"><g transform="translate(254.480961, 268.147216)"><g><path d="M 32.90625 -43.898438 C 32.5 -44.984375 31.683594 -45.933594 30.601562 -46.816406 C 29.445312 -47.628906 28.089844 -48.105469 26.527344 -48.105469 C 24.902344 -48.105469 23.542969 -47.628906 22.390625 -46.816406 C 21.238281 -46 20.421875 -44.984375 20.015625 -43.898438 L 5.429688 -7.261719 C 5.15625 -6.648438 5.089844 -6.039062 5.089844 -5.359375 C 5.089844 -4.75 5.15625 -4.140625 5.429688 -3.527344 C 5.699219 -2.851562 6.039062 -2.308594 6.511719 -1.832031 C 6.988281 -1.289062 7.597656 -0.882812 8.34375 -0.542969 C 9.023438 -0.203125 9.839844 -0.0664062 10.789062 -0.0664062 C 12.144531 -0.0664062 13.296875 -0.40625 14.25 -1.152344 C 15.128906 -1.832031 15.742188 -2.644531 16.148438 -3.597656 L 19.949219 -13.164062 C 20.015625 -13.296875 20.152344 -13.433594 20.285156 -13.570312 C 20.421875 -13.636719 20.625 -13.707031 20.761719 -13.707031 L 32.226562 -13.707031 C 32.5 -13.707031 32.769531 -13.5 33.042969 -13.164062 L 36.773438 -3.597656 C 37.113281 -2.644531 37.722656 -1.832031 38.671875 -1.152344 C 39.554688 -0.40625 40.710938 -0.0664062 42.132812 -0.0664062 C 43.082031 -0.0664062 43.898438 -0.203125 44.578125 -0.542969 C 45.253906 -0.882812 45.867188 -1.289062 46.410156 -1.832031 C 46.882812 -2.308594 47.222656 -2.851562 47.492188 -3.527344 C 47.765625 -4.140625 47.902344 -4.75 47.902344 -5.359375 C 47.902344 -6.039062 47.765625 -6.71875 47.492188 -7.261719 Z M 26.460938 -29.378906 C 26.597656 -28.972656 26.730469 -28.632812 26.867188 -28.292969 C 27.003906 -27.886719 27.207031 -27.546875 27.34375 -27.140625 C 27.480469 -26.664062 27.683594 -26.257812 27.886719 -25.851562 C 28.019531 -25.441406 28.15625 -25.035156 28.292969 -24.695312 C 28.359375 -24.492188 28.429688 -24.359375 28.429688 -24.359375 L 24.359375 -24.359375 C 24.425781 -24.425781 24.492188 -24.492188 24.492188 -24.628906 C 24.765625 -25.441406 25.105469 -26.191406 25.441406 -27.003906 C 25.714844 -27.816406 26.054688 -28.5625 26.460938 -29.378906 Z M 26.460938 -29.378906 "/></g></g></g><g fill="#ef5454" fill-opacity="1"><g transform="translate(298.368415, 268.147216)"><g><path d="M 10.71875 -47.96875 C 9.769531 -47.96875 8.886719 -47.765625 8.210938 -47.425781 C 7.53125 -47.085938 6.921875 -46.679688 6.445312 -46.136719 C 5.902344 -45.59375 5.5625 -45.050781 5.292969 -44.441406 C 5.019531 -43.761719 4.953125 -43.152344 4.953125 -42.609375 C 4.953125 -41.929688 5.089844 -41.25 5.359375 -40.640625 C 5.632812 -40.03125 5.96875 -39.488281 6.511719 -39.011719 C 6.988281 -38.46875 7.597656 -38.0625 8.34375 -37.792969 C 9.023438 -37.519531 9.839844 -37.382812 10.789062 -37.382812 L 18.660156 -37.382812 C 18.792969 -37.382812 18.996094 -37.25 19.199219 -37.113281 C 19.40625 -36.910156 19.539062 -36.636719 19.539062 -36.300781 L 19.539062 -5.359375 C 19.539062 -4.75 19.609375 -4.140625 19.878906 -3.527344 C 20.152344 -2.851562 20.492188 -2.308594 20.964844 -1.765625 C 21.441406 -1.222656 22.050781 -0.746094 22.730469 -0.40625 C 23.40625 -0.0664062 24.289062 0.0664062 25.238281 0.0664062 C 26.191406 0.0664062 27.003906 -0.0664062 27.75 -0.40625 C 28.429688 -0.746094 29.039062 -1.152344 29.515625 -1.695312 C 29.988281 -2.238281 30.328125 -2.78125 30.601562 -3.460938 C 30.804688 -4.070312 30.9375 -4.679688 30.9375 -5.292969 L 30.9375 -36.230469 C 30.9375 -36.570312 31.007812 -36.839844 31.277344 -37.046875 C 31.480469 -37.179688 31.683594 -37.316406 31.820312 -37.316406 L 39.691406 -37.316406 C 40.640625 -37.316406 41.457031 -37.453125 42.203125 -37.792969 C 42.878906 -38.132812 43.492188 -38.539062 43.964844 -39.082031 C 44.441406 -39.554688 44.78125 -40.097656 45.050781 -40.777344 C 45.253906 -41.457031 45.390625 -42.066406 45.390625 -42.675781 C 45.390625 -43.21875 45.253906 -43.832031 44.984375 -44.507812 C 44.710938 -45.121094 44.371094 -45.660156 43.898438 -46.203125 C 43.355469 -46.679688 42.746094 -47.085938 42.066406 -47.425781 C 41.386719 -47.765625 40.574219 -47.96875 39.625 -47.96875 Z M 10.71875 -47.96875 "/></g></g></g></svg>