
        <svg xmlns="http://www.w3.org/2000/svg" xmlns:xlink="http://www.w3.org/1999/xlink" version="1.1" width="2615.058324496288" height="3127.253446447508" viewBox="0 0 2615.058324496288 3127.253446447508">
			
			<g transform="scale(6.362672322375398) translate(10, 10)">
				<defs id="SvgjsDefs16282"><linearGradient id="SvgjsLinearGradient16289"><stop id="SvgjsStop16290" stop-color="#2d388a" offset="0"/><stop id="SvgjsStop16291" stop-color="#00aeef" offset="1"/></linearGradient></defs><g id="SvgjsG16283" featureKey="rootContainer" transform="matrix(1.15,0,0,1.15,-5.75,0)" fill="#000"><path xmlns="http://www.w3.org/2000/svg" fill-rule="evenodd" d="M5,65 L175,0 L345, 65 L175, 10 z M5,330 L175,410 L345,325 L175, 400 z"/></g><g id="SvgjsG16284" featureKey="symbolFeature-0" transform="matrix(1.4388488757346527,0,0,1.4388488757346527,123.84172668639802,94.18705024407005)" fill="#000"><rect xmlns="http://www.w3.org/2000/svg" x="23.5" y="48.6" width="20.8" height="3.5"/><rect xmlns="http://www.w3.org/2000/svg" x="23.5" y="56.9" width="11.4" height="3.7"/><rect xmlns="http://www.w3.org/2000/svg" x="23.5" y="65.7" width="15.1" height="3.7"/><rect xmlns="http://www.w3.org/2000/svg" x="23.6" y="39.3" width="14.9" height="3.7"/><rect xmlns="http://www.w3.org/2000/svg" x="38" y="57.3" width="20.8" height="3.5"/><rect xmlns="http://www.w3.org/2000/svg" x="47.9" y="48.5" width="11.4" height="3.7"/><rect xmlns="http://www.w3.org/2000/svg" x="61.2" y="39.4" width="14.8" height="3.7"/><rect xmlns="http://www.w3.org/2000/svg" x="62.5" y="48.5" width="10.3" height="3.7"/><rect xmlns="http://www.w3.org/2000/svg" x="60.8" y="65.8" width="8" height="3.7"/><rect xmlns="http://www.w3.org/2000/svg" x="61.8" y="56.9" width="8.9" height="3.7"/><rect xmlns="http://www.w3.org/2000/svg" x="42.1" y="65.8" width="15.1" height="3.7"/><rect xmlns="http://www.w3.org/2000/svg" x="42.1" y="39.3" width="14.9" height="3.7"/><circle xmlns="http://www.w3.org/2000/svg" cx="59.6" cy="20.6" r="3.4"/><circle xmlns="http://www.w3.org/2000/svg" cx="70" cy="20.6" r="3.4"/><circle xmlns="http://www.w3.org/2000/svg" cx="81" cy="20.6" r="3.4"/><path xmlns="http://www.w3.org/2000/svg" d="M84.1,9.6H15.2c-7.5,0-13.7,6.8-13.7,15.1v41.9c0,8.3,6.1,15.1,13.7,15.1h53.5c-0.4-1.4-0.6-2.9-0.6-4.5c0-0.3,0-0.6,0-0.9  h-53C10.7,76.4,7,72,7,66.6v-34h85.5v27.3c2,0.7,3.8,1.7,5.4,2.9V24.8C97.8,16.4,91.7,9.6,84.1,9.6z M92.4,27.3H7v-2.5  c0-5.4,3.7-9.8,8.3-9.8h68.9c4.6,0,8.3,4.4,8.3,9.8V27.3z"/><path xmlns="http://www.w3.org/2000/svg" d="M85.5,62.5c-7.3,0-13.3,6-13.3,13.3c0,7.3,6,13.3,13.3,13.3c7.3,0,13.3-6,13.3-13.3C98.8,68.4,92.8,62.5,85.5,62.5z M81,79  l-4.2-3.4l4.2-3.1l1,1.4l-2.4,1.8l2.5,2L81,79z M84.6,81.2L83,80.7l3.6-10.4l1.6,0.6L84.6,81.2z M90,79l-1.1-1.3l2.5-2l-2.4-1.8  l1-1.4l4.2,3.1L90,79z"/></g><g id="SvgjsG16285" featureKey="nameFeature-0" transform="matrix(3.3204314175209158,0,0,3.3204314175209158,20.999992875127134,217.54553133040474)" fill="#000"><path d="M11.6 11.36 l6.68 0 l0 28.56 l-3.76 0 l0 -22.6 l-3.56 22.68 l-1.48 0 l-0.36 -0.08 l-0.32 0.08 l-1.48 0 l-3.52 -22.68 l0 22.6 l-3.8 0 l0 -28.56 l6.72 0 l2.44 16.16 z M36.096 36.24 l5.52 0 l0 3.76 l-9.28 0 l0 -28.72 l3.76 0 l0 24.96 z M51.524 40.08 c-3.24 0 -5.88 -2.64 -5.88 -5.88 l0 -22.72 l3.8 0 l0 22.72 c0 1.16 0.92 2.12 2.08 2.12 s2.08 -0.96 2.08 -2.12 l0 -22.72 l3.8 0 l0 22.72 c0 3.24 -2.64 5.88 -5.88 5.88 z M66.792 39.92 c-2.96 0 -5.36 -2.4 -5.36 -5.36 l0 -17.76 c0 -2.96 2.4 -5.36 5.36 -5.36 s5.36 2.4 5.36 5.36 l0 1.6 l-3.8 0 l0 -1.6 c0 -0.84 -0.72 -1.56 -1.56 -1.56 s-1.56 0.72 -1.56 1.56 l0 17.76 c0 0.84 0.72 1.56 1.56 1.56 s1.56 -0.72 1.56 -1.56 l0 -2.56 l3.8 0 l0 2.56 c0 2.96 -2.4 5.36 -5.36 5.36 z M81.54 39.92 c-2.96 0 -5.36 -2.4 -5.36 -5.36 l0 -17.76 c0 -2.96 2.4 -5.36 5.36 -5.36 s5.36 2.4 5.36 5.36 l0 1.6 l-3.8 0 l0 -1.6 c0 -0.84 -0.72 -1.56 -1.56 -1.56 s-1.56 0.72 -1.56 1.56 l0 17.76 c0 0.84 0.72 1.56 1.56 1.56 s1.56 -0.72 1.56 -1.56 l0 -2.56 l3.8 0 l0 2.56 c0 2.96 -2.4 5.36 -5.36 5.36 z M101.56800000000001 40 l-1.44 -9.88 l-4.04 0 l-1.32 9.88 l-3.84 0 l4.32 -28.6 l5.16 0 l5 28.6 l-3.84 0 z M96.608 26.32 l2.96 0 l-1.52 -10.4 z"/></g>
			</g>
		</svg>
	